Coordinates
version=1
nRows=19
nColumns=63
inDegrees=yes

Units are S.I. units (second, meters, Newtons, ...)
If the header above contains a line with 'inDegrees', this indicates whether rotational values are in degrees (yes) or radians (no).

endheader
time	pelvis_tilt	pelvis_list	pelvis_rotation	pelvis_tx	pelvis_ty	pelvis_tz	hip_flexion_r	hip_adduction_r	hip_rotation_r	knee_angle_r	knee_angle_r_beta	ankle_angle_r	subtalar_angle_r	mtp_angle_r	hip_flexion_l	hip_adduction_l	hip_rotation_l	knee_angle_l	knee_angle_l_beta	ankle_angle_l	subtalar_angle_l	mtp_angle_l	L5_S1_Flex_Ext	L5_S1_Lat_Bending	L5_S1_axial_rotation	L4_L5_Flex_Ext	L4_L5_Lat_Bending	L4_L5_axial_rotation	L3_L4_Flex_Ext	L3_L4_Lat_Bending	L3_L4_axial_rotation	L2_L3_Flex_Ext	L2_L3_Lat_Bending	L2_L3_axial_rotation	L1_L2_Flex_Ext	L1_L2_Lat_Bending	L1_L2_axial_rotation	L1_T12_Flex_Ext	L1_T12_Lat_Bending	L1_T12_axial_rotation	Abs_r3	Abs_r2	Abs_r1	Abs_t1	Abs_t2	neck_flexion	neck_bending	neck_rotation	arm_flex_r	arm_add_r	arm_rot_r	elbow_flex_r	pro_sup_r	wrist_flex_r	wrist_dev_r	arm_flex_l	arm_add_l	arm_rot_l	elbow_flex_l	pro_sup_l	wrist_flex_l	wrist_dev_l
2.041667	-3.015729	-10.582444	103.939155	0.036436	0.496065	0.784116	14.028194	-4.175331	-12.131508	22.334220	0.389806	41.441377	4.316582	0.000000	16.904305	3.216718	-2.146838	25.031218	0.436877	40.959672	2.458145	0.000000	0.005203	-0.226794	-1.358148	0.009663	-0.301636	-1.443032	0.008548	-0.551428	-1.443032	0.005947	-0.551428	-1.188379	0.004832	-0.462479	-1.103495	0.002973	-0.351304	-1.018611	0.037166	-2.565542	-7.553609	0.000000	0.000000	2.396809	0.457170	-19.608051	-16.733214	-54.001895	63.496508	109.819985	89.763733	-18.444963	-24.469625	-40.646138	-48.062478	38.768520	109.844877	89.374966	-12.485330	-21.911846
2.062500	-3.897111	-10.518130	101.822656	0.038719	0.496447	0.782925	14.110494	-4.638672	-10.316231	22.519284	0.393036	41.346431	4.556502	0.000000	16.444442	3.652053	-3.614889	24.746392	0.431906	40.821413	1.761421	0.000000	-0.015249	-0.248836	-1.260340	-0.028319	-0.330951	-1.339112	-0.025053	-0.605019	-1.339112	-0.017428	-0.605019	-1.102798	-0.014160	-0.507426	-1.024027	-0.008713	-0.385446	-0.945255	-0.108923	-2.814879	-7.009635	0.000000	0.000000	1.639813	0.369867	-22.883768	-17.842705	-53.731241	62.302808	109.857167	89.775057	-18.871108	-24.512088	-40.841493	-48.066277	38.581255	109.493976	89.383271	-12.089164	-22.214854
2.083333	-4.832383	-10.428096	99.620471	0.041345	0.496705	0.781691	14.232922	-5.108350	-8.442873	22.716447	0.396477	41.312110	4.829475	0.000000	16.002273	4.120495	-5.137650	24.453646	0.426797	40.737940	1.112088	0.000000	-0.039870	-0.272752	-1.154874	-0.074043	-0.362760	-1.227054	-0.065502	-0.663168	-1.227054	-0.045567	-0.663168	-1.010515	-0.037023	-0.556195	-0.938335	-0.022782	-0.422492	-0.866155	-0.284788	-3.085422	-6.423062	0.000000	0.000000	1.148204	0.447177	-25.780356	-19.133664	-53.393489	60.887710	109.904936	89.785835	-19.275647	-24.554359	-41.071105	-48.097874	38.291712	109.148117	89.396625	-11.479666	-22.524439
2.104167	-5.801347	-10.317272	97.386393	0.044254	0.496792	0.780405	14.393506	-5.572466	-6.521326	22.924808	0.400113	41.344811	5.078035	0.000000	15.587933	4.602989	-6.714475	24.161856	0.421704	40.727835	0.583119	0.000000	-0.066949	-0.298104	-1.040970	-0.124330	-0.396478	-1.106030	-0.109990	-0.724810	-1.106030	-0.076515	-0.724810	-0.910848	-0.062168	-0.607894	-0.845788	-0.038254	-0.461763	-0.780727	-0.478207	-3.372212	-5.789561	0.000000	0.000000	1.001240	0.689814	-28.184651	-20.644361	-52.936811	59.210341	109.937420	89.795377	-19.501003	-24.593110	-41.275492	-48.212004	37.970421	108.832693	89.411308	-10.639304	-22.789274
2.125000	-6.745962	-10.180584	95.153042	0.047298	0.496687	0.779150	14.593916	-5.997549	-4.628955	23.135403	0.403789	41.440806	5.354763	0.000000	15.216640	5.074815	-8.265648	23.870855	0.416625	40.790059	0.114727	0.000000	-0.094403	-0.317770	-0.910072	-0.175315	-0.422634	-0.966951	-0.155094	-0.772626	-0.966951	-0.107893	-0.772626	-0.796313	-0.087662	-0.647997	-0.739433	-0.053942	-0.492226	-0.682554	-0.674308	-3.594678	-5.061546	0.000000	0.000000	1.199454	1.035221	-29.983121	-22.422986	-52.369245	57.236974	109.960633	89.803167	-19.512218	-24.625240	-41.272321	-48.432933	37.824224	108.539606	89.422158	-9.640914	-23.007916
2.145833	-7.664204	-10.023478	92.967989	0.050438	0.496426	0.777904	14.809142	-6.392813	-2.810259	23.338444	0.407333	41.601803	5.650825	0.000000	14.889055	5.536221	-9.762040	23.605401	0.411992	40.931347	-0.284465	0.000000	-0.121740	-0.333926	-0.762977	-0.226083	-0.444121	-0.810663	-0.200007	-0.811907	-0.810663	-0.139137	-0.811907	-0.667605	-0.113048	-0.680941	-0.619919	-0.069562	-0.517251	-0.572233	-0.869577	-3.777434	-4.243450	0.000000	0.000000	1.607729	1.336823	-31.384071	-24.373372	-51.656509	55.087541	109.946428	89.808736	-19.299639	-24.652432	-40.964955	-48.795009	37.949204	108.307422	89.427809	-8.470741	-23.093060
2.166667	-8.527400	-9.857824	90.861703	0.053604	0.496065	0.776619	15.023401	-6.743661	-1.069815	23.528237	0.410645	41.813690	5.933442	0.000000	14.596479	5.963699	-11.184721	23.362907	0.407760	41.136151	-0.628185	0.000000	-0.147707	-0.344735	-0.608673	-0.274306	-0.458498	-0.646715	-0.242667	-0.838189	-0.646715	-0.168814	-0.838189	-0.532589	-0.137160	-0.702984	-0.494547	-0.084400	-0.533995	-0.456505	-1.055054	-3.899715	-3.385255	0.000000	0.000000	2.103830	1.673392	-32.352645	-26.263600	-50.833765	53.055115	109.888441	89.812015	-19.042754	-24.676224	-40.363411	-49.230604	38.347634	108.144333	89.429097	-7.148511	-22.993982
2.187500	-9.331434	-9.684763	88.879744	0.056724	0.495621	0.775339	15.243202	-7.065101	0.520677	23.710867	0.413833	42.069225	6.238169	0.000000	14.353294	6.373023	-12.485444	23.149087	0.404028	41.384183	-0.937691	0.000000	-0.170281	-0.351369	-0.450424	-0.316228	-0.467320	-0.478576	-0.279754	-0.854317	-0.478576	-0.194614	-0.854317	-0.394121	-0.158123	-0.716511	-0.365970	-0.097298	-0.544270	-0.337818	-1.216297	-3.974751	-2.505125	0.000000	0.000000	2.583513	1.958834	-33.066215	-28.085336	-49.918663	51.138151	109.782746	89.812859	-18.643282	-24.695182	-39.390594	-49.755642	39.129846	108.021597	89.425896	-5.758153	-22.859364
2.208333	-10.033853	-9.515683	87.063968	0.059687	0.495171	0.774045	15.440613	-7.332105	1.909117	23.852142	0.416298	42.339687	6.572279	0.000000	14.150660	6.733766	-13.630306	22.959066	0.400711	41.650299	-1.224404	0.000000	-0.188392	-0.349192	-0.301965	-0.349864	-0.464425	-0.320837	-0.309510	-0.849024	-0.320837	-0.215314	-0.849024	-0.264219	-0.174941	-0.712072	-0.245346	-0.107647	-0.540898	-0.226473	-1.345668	-3.950125	-1.679436	0.000000	0.000000	2.988900	2.151367	-33.540225	-29.757348	-48.992849	49.414392	109.653024	89.811787	-18.158334	-24.710118	-38.077113	-50.301237	40.326943	107.900837	89.421941	-4.540141	-22.753824
2.229167	-10.637873	-9.352703	85.417993	0.062486	0.494771	0.772707	15.611467	-7.547605	3.133358	23.974295	0.418430	42.611350	6.894171	0.000000	13.959870	7.043321	-14.627380	22.770301	0.397417	41.904750	-1.510491	0.000000	-0.202826	-0.338176	-0.168954	-0.376668	-0.449774	-0.179513	-0.333223	-0.822242	-0.179513	-0.231810	-0.822242	-0.147835	-0.188344	-0.689609	-0.137275	-0.115895	-0.523835	-0.126715	-1.448766	-3.825518	-0.939671	0.000000	0.000000	3.270718	2.134733	-33.853435	-31.353997	-48.124542	47.770398	109.518176	89.809210	-17.570877	-24.720137	-36.435271	-50.876465	42.014003	107.758221	89.418766	-3.888752	-22.759420
2.250000	-11.150584	-9.192796	83.948663	0.065078	0.494467	0.771363	15.750558	-7.728993	4.161002	24.081998	0.420310	42.872370	7.235607	0.000000	13.765587	7.315694	-15.450959	22.567009	0.393869	42.107505	-1.837483	0.000000	-0.214835	-0.318769	-0.062913	-0.398970	-0.423963	-0.066845	-0.352952	-0.775055	-0.066845	-0.245535	-0.775055	-0.055049	-0.199496	-0.650034	-0.051117	-0.122757	-0.493773	-0.047185	-1.534544	-3.605978	-0.349904	0.000000	0.000000	3.389969	1.828981	-34.004555	-32.858795	-47.384004	46.176645	109.403978	89.805188	-16.868532	-24.723819	-34.612192	-51.438685	44.007919	107.587767	89.418244	-3.709981	-22.828865
2.270833	-11.542283	-9.033450	82.654870	0.067412	0.494269	0.770056	15.854956	-7.842620	5.006476	24.177042	0.421969	43.098684	7.574186	0.000000	13.574630	7.513761	-16.109993	22.377882	0.390568	42.255234	-2.217136	0.000000	-0.225469	-0.286307	0.008126	-0.418719	-0.380788	0.008634	-0.370423	-0.696126	0.008634	-0.257689	-0.696126	0.007110	-0.209371	-0.583837	0.006602	-0.128833	-0.443489	0.006094	-1.610503	-3.238759	0.045193	0.000000	0.000000	3.347531	1.186979	-33.867190	-34.285133	-46.828942	44.557593	109.346778	89.799785	-15.950752	-24.719489	-32.720604	-51.924337	46.193300	107.376513	89.420341	-4.062725	-22.949771
2.291667	-11.829072	-8.877490	81.534526	0.069457	0.494169	0.768842	15.934043	-7.904399	5.674434	24.280613	0.423777	43.282955	7.905699	0.000000	13.385843	7.650576	-16.611836	22.202662	0.387510	42.334159	-2.653854	0.000000	-0.235082	-0.242978	0.044602	-0.436571	-0.323161	0.047389	-0.386216	-0.590778	0.047389	-0.268675	-0.590778	0.039027	-0.218297	-0.495482	0.036239	-0.134326	-0.376374	0.033451	-1.679167	-2.748620	0.248062	0.000000	0.000000	3.196394	0.242658	-33.335913	-35.639154	-46.445913	42.898402	109.361591	89.793083	-14.864254	-24.707736	-30.816027	-52.324187	48.493922	107.136986	89.423682	-4.899885	-23.105781
2.312500	-11.984929	-8.731016	80.688545	0.071079	0.494165	0.767813	15.973051	-7.908806	6.063939	24.381324	0.425534	43.408263	8.224090	0.000000	13.226720	7.716609	-16.886857	22.073894	0.385262	42.353529	-3.106201	0.000000	-0.242851	-0.187525	0.019805	-0.450999	-0.249408	0.021043	-0.398980	-0.455947	0.021043	-0.277555	-0.455947	0.017329	-0.225512	-0.382400	0.016091	-0.138765	-0.290476	0.014854	-1.734662	-2.121315	0.110148	0.000000	0.000000	2.979665	-0.878518	-32.185528	-36.712108	-46.299305	41.428766	109.454828	89.785152	-13.697052	-24.690489	-29.049580	-52.571122	50.750241	106.873291	89.427209	-6.211890	-23.283733
2.333333	-12.070558	-8.572494	79.973148	0.072498	0.494266	0.766932	15.971923	-7.877789	6.335934	24.489826	0.427428	43.470633	8.514461	0.000000	13.051922	7.737611	-17.039624	21.963631	0.383338	42.313532	-3.625880	0.000000	-0.252659	-0.129245	-0.024380	-0.469213	-0.171896	-0.025904	-0.415094	-0.314247	-0.025904	-0.288764	-0.314247	-0.021333	-0.234619	-0.263557	-0.019809	-0.144369	-0.200201	-0.018285	-1.804719	-1.462050	-0.135595	0.000000	0.000000	2.688397	-2.205376	-30.584027	-37.634690	-46.319513	40.045183	109.603262	89.776756	-12.519995	-24.670501	-27.409323	-52.747451	52.903429	106.624019	89.432176	-7.774300	-23.461704
2.354167	-12.115952	-8.423005	79.444492	0.073760	0.494435	0.766230	15.952813	-7.833160	6.510175	24.608378	0.429497	43.469866	8.689229	0.000000	12.896097	7.737383	-17.085691	21.885147	0.381968	42.232047	-4.119371	0.000000	-0.260555	-0.074533	-0.106918	-0.483876	-0.099128	-0.113601	-0.428065	-0.181219	-0.113601	-0.297788	-0.181219	-0.093554	-0.241951	-0.151987	-0.086871	-0.148881	-0.115451	-0.080189	-1.861116	-0.843128	-0.594648	0.000000	0.000000	2.295055	-3.569169	-28.405555	-38.172142	-46.550768	39.069183	109.787483	89.768346	-11.581775	-24.650496	-26.157691	-52.821693	54.635025	106.409131	89.440381	-9.360895	-23.630246
2.375000	-12.097486	-8.295980	79.061067	0.074884	0.494672	0.765677	15.923802	-7.747444	6.576207	24.733020	0.431673	43.406525	8.830202	0.000000	12.760712	7.685091	-17.033386	21.836586	0.381120	42.123678	-4.619480	0.000000	-0.266596	-0.020058	-0.201803	-0.495095	-0.026677	-0.214416	-0.437990	-0.048768	-0.214416	-0.304692	-0.048768	-0.176578	-0.247561	-0.040902	-0.163965	-0.152333	-0.031069	-0.151352	-1.904268	-0.226897	-1.122369	0.000000	0.000000	1.749733	-4.940151	-25.716923	-38.443341	-46.933346	38.388161	109.997120	89.759820	-10.767805	-24.631098	-25.086414	-52.812616	56.167767	106.226444	89.453234	-11.072345	-23.810386
2.395833	-12.108209	-8.219482	78.827470	0.076015	0.494889	0.765243	15.920577	-7.700054	6.575141	24.858857	0.433869	43.322149	8.902870	0.000000	12.683465	7.654256	-16.939466	21.827612	0.380964	41.985449	-5.060060	0.000000	-0.265656	0.020453	-0.317308	-0.493350	0.027203	-0.337140	-0.436446	0.049731	-0.337140	-0.303618	0.049731	-0.277645	-0.246688	0.041709	-0.257813	-0.151796	0.031682	-0.237981	-1.897554	0.231374	-1.764773	0.000000	0.000000	1.152728	-6.154839	-22.452121	-38.341174	-47.434339	38.197347	110.196376	89.751548	-10.309197	-24.614408	-24.490905	-52.745057	57.152172	106.114193	89.471865	-12.691059	-23.991210
2.416667	-12.120485	-8.208975	78.715824	0.077181	0.495054	0.764889	15.960563	-7.651304	6.528401	24.985701	0.436083	43.226924	8.927232	0.000000	12.674155	7.604085	-16.841196	21.859824	0.381526	41.838090	-5.411282	0.000000	-0.257334	0.051190	-0.431198	-0.477895	0.068083	-0.458148	-0.422774	0.124463	-0.458148	-0.294107	0.124463	-0.377298	-0.238961	0.104386	-0.350348	-0.147041	0.079293	-0.323398	-1.838112	0.579070	-2.398194	0.000000	0.000000	0.572713	-7.173838	-18.621789	-38.071023	-47.955156	38.276590	110.363954	89.743629	-10.059847	-24.600405	-24.198563	-52.632928	57.740112	106.062860	89.495277	-14.095050	-24.158474
